<svg xmlns="http://www.w3.org/2000/svg" xmlns:xlink="http://www.w3.org/1999/xlink" viewBox="0,0,256,256" width="128px" height="128px" fill-rule="nonzero"><g fill="#ffffff" fill-rule="nonzero" stroke="none" stroke-width="1" stroke-linecap="butt" stroke-linejoin="miter" stroke-miterlimit="10" stroke-dasharray="" stroke-dashoffset="0" font-family="none" font-weight="none" font-size="none" text-anchor="none" style="mix-blend-mode: normal"><g transform="scale(8,8)"><path d="M27.418,8.877c0.05,-0.017 2.592,-0.907 3.582,-3.877c-1.905,1.27 -3.807,1.732 -4.944,1.902c-1.177,-1.174 -2.789,-1.902 -4.556,-1.902c-0.553,0 -1,0.447 -1,1c0,0.553 0.447,1 1,1c0.043,0 0.083,0.011 0.127,0.012c0.724,0.104 1.289,0.708 1.29,1.461c0.002,0.828 -0.667,1.502 -1.496,1.504c-0.958,0.003 -1.459,0.901 -1.459,1.787l0.032,1.87c0,4.758 -3.433,11.682 -12.728,12.418c5.957,-2.005 9.734,-6.514 9.734,-12.052v-2.5c0,-0.177 0.011,-0.352 0.031,-0.525c0.001,-0.009 0.003,-0.017 0.004,-0.025c0.013,-0.108 0.036,-0.214 0.058,-0.321c0.23,-1.013 0.753,-1.885 1.465,-2.525c0.09,-0.078 0.177,-0.157 0.274,-0.228c0.445,-0.327 0.54,-0.953 0.212,-1.397c-0.327,-0.446 -0.955,-0.54 -1.397,-0.212c-1.658,1.22 -2.647,3.177 -2.647,5.233v0.668c-2.153,-0.165 -6.426,-1.165 -10,-6.168c0,0 -3,4 2,8c-1,0 -2,0 -3,-1c0,4 3,6 5,6c-0.614,0.249 -1.522,0.444 -3,0c0.347,2.186 1.781,3.445 3.185,4.034c-1.786,0.985 -3.914,1.675 -6.309,1.974c-0.444,0.056 -0.798,0.399 -0.864,0.843c-0.01,0.064 0,0.127 0.002,0.19c-0.005,0 -0.009,0.002 -0.014,0.002c0.005,0.002 0.01,0.003 0.014,0.005c0.018,0.369 0.227,0.707 0.574,0.863c2.158,0.977 4.939,1.557 7.88,1.557c3.631,0 7.502,-0.886 10.733,-3.002c3.161,-2.07 6.906,-6.176 6.799,-13.979c-0.001,-0.097 -0.013,-0.191 -0.018,-0.287c1.16,-0.618 2.496,-1.635 3.018,-3.2c-1.127,0.836 -3.523,0.878 -3.582,0.879c0,-0.001 0,-0.001 0,-0.002z"></path></g></g></svg>